<svg width="22" height="22" viewBox="0 0 24 23" fill="none" xmlns="http://www.w3.org/2000/svg">
<path d="M2.77023 22.9775C2.15236 22.9775 1.62343 22.7664 1.18343 22.3442C0.743436 21.9221 0.523438 21.4145 0.523438 20.8217V5.73094C0.523438 5.13809 0.743436 4.63057 1.18343 4.20839C1.62343 3.78621 2.15236 3.57512 2.77023 3.57512H12.7966L10.5498 5.73094H2.77023V20.8217H18.4978V13.3302L20.7446 11.1744V20.8217C20.7446 21.4145 20.5246 21.9221 20.0846 22.3442C19.6446 22.7664 19.1157 22.9775 18.4978 22.9775H2.77023ZM15.3242 4.19492L16.925 5.70399L9.51062 12.8182V14.3542H11.0834L18.5259 7.21307L20.1267 8.72214L12.0383 16.5101H7.26382V11.9289L15.3242 4.19492ZM20.1267 8.72214L15.3242 4.19492L18.1327 1.50014C18.5821 1.06898 19.1203 0.853394 19.7476 0.853394C20.3748 0.853394 20.9037 1.06898 21.3344 1.50014L22.9071 3.03616C23.3378 3.44936 23.5531 3.95239 23.5531 4.54524C23.5531 5.13809 23.3378 5.64112 22.9071 6.05431L20.1267 8.72214Z" fill="#3F4747"/>
</svg>
 