<svg width="43" height="33" viewBox="0 0 43 33" fill="none" xmlns="http://www.w3.org/2000/svg">
<rect width="43" height="33" fill="#B5B5B5"/>
<g id="Prot&#195;&#179;tipos Desktop">
<g id="Fornecedor">
<g id="Funcion&#195;&#161;rios" clip-path="url(#clip0_0_1)">
<rect width="1440" height="1024" transform="translate(-434 -19)" fill="white"/>
<g id="Cliente - Header" filter="url(#filter0_d_0_1)">
<rect id="BG" x="-433" y="-19" width="1440" height="80" fill="white"/>
<g id="Frame 5">
<path id="group" d="M0 33V27.225C0 26.0562 0.285038 24.982 0.855114 24.0023C1.42519 23.0227 2.18258 22.275 3.12727 21.7594C5.14697 20.6938 7.19924 19.8945 9.28409 19.3617C11.3689 18.8289 13.4864 18.5625 15.6364 18.5625C17.7864 18.5625 19.9038 18.8289 21.9886 19.3617C24.0735 19.8945 26.1258 20.6938 28.1455 21.7594C29.0902 22.275 29.8475 23.0227 30.4176 24.0023C30.9877 24.982 31.2727 26.0562 31.2727 27.225V33H0ZM35.1818 33V26.8125C35.1818 25.3 34.7828 23.8477 33.9847 22.4555C33.1866 21.0633 32.0545 19.8688 30.5886 18.8719C32.25 19.0781 33.8136 19.4305 35.2795 19.9289C36.7455 20.4273 38.1136 21.0375 39.3841 21.7594C40.5568 22.4469 41.4527 23.2117 42.0716 24.0539C42.6905 24.8961 43 25.8156 43 26.8125V33H35.1818ZM15.6364 16.5C13.4864 16.5 11.6458 15.6922 10.1148 14.0766C8.58371 12.4609 7.81818 10.5188 7.81818 8.25C7.81818 5.98125 8.58371 4.03906 10.1148 2.42344C11.6458 0.807813 13.4864 0 15.6364 0C17.7864 0 19.6269 0.807813 21.158 2.42344C22.689 4.03906 23.4545 5.98125 23.4545 8.25C23.4545 10.5188 22.689 12.4609 21.158 14.0766C19.6269 15.6922 17.7864 16.5 15.6364 16.5ZM35.1818 8.25C35.1818 10.5188 34.4163 12.4609 32.8852 14.0766C31.3542 15.6922 29.5136 16.5 27.3636 16.5C27.0053 16.5 26.5492 16.457 25.9955 16.3711C25.4417 16.2852 24.9856 16.1906 24.6273 16.0875C25.5068 14.9875 26.1828 13.7672 26.6551 12.4266C27.1275 11.0859 27.3636 9.69375 27.3636 8.25C27.3636 6.80625 27.1275 5.41406 26.6551 4.07344C26.1828 2.73281 25.5068 1.5125 24.6273 0.4125C25.0833 0.240625 25.5394 0.128906 25.9955 0.0773438C26.4515 0.0257813 26.9076 0 27.3636 0C29.5136 0 31.3542 0.807813 32.8852 2.42344C34.4163 4.03906 35.1818 5.98125 35.1818 8.25ZM3.90909 28.875H27.3636V27.225C27.3636 26.8469 27.2741 26.5031 27.0949 26.1938C26.9157 25.8844 26.6795 25.6438 26.3864 25.4719C24.6273 24.5438 22.8519 23.8477 21.0602 23.3836C19.2686 22.9195 17.4606 22.6875 15.6364 22.6875C13.8121 22.6875 12.0042 22.9195 10.2125 23.3836C8.42083 23.8477 6.64545 24.5438 4.88636 25.4719C4.59318 25.6438 4.35701 25.8844 4.17784 26.1938C3.99867 26.5031 3.90909 26.8469 3.90909 27.225V28.875ZM15.6364 12.375C16.7114 12.375 17.6316 11.9711 18.3972 11.1633C19.1627 10.3555 19.5455 9.38437 19.5455 8.25C19.5455 7.11562 19.1627 6.14453 18.3972 5.33672C17.6316 4.52891 16.7114 4.125 15.6364 4.125C14.5614 4.125 13.6411 4.52891 12.8756 5.33672C12.11 6.14453 11.7273 7.11562 11.7273 8.25C11.7273 9.38437 12.11 10.3555 12.8756 11.1633C13.6411 11.9711 14.5614 12.375 15.6364 12.375Z" fill="#2EC4B6"/>
</g>
</g>
</g>
<path d="M-4092 -582H7466V-602H-4092V-582ZM7458 -590V3234H7478V-590H7458ZM7466 3226H-4092V3246H7466V3226ZM-4084 3234V-590H-4104V3234H-4084ZM-4092 3226C-4087.58 3226 -4084 3229.58 -4084 3234H-4104C-4104 3240.63 -4098.63 3246 -4092 3246V3226ZM7458 3234C7458 3229.58 7461.58 3226 7466 3226V3246C7472.63 3246 7478 3240.63 7478 3234H7458ZM7466 -582C7461.58 -582 7458 -585.582 7458 -590H7478C7478 -596.627 7472.63 -602 7466 -602V-582ZM-4092 -602C-4098.63 -602 -4104 -596.627 -4104 -590H-4084C-4084 -585.582 -4087.58 -582 -4092 -582V-602Z" fill="black"/>
</g>
<path d="M-4629 -5549H8245V-5569H-4629V-5549ZM8237 -5557V3635H8257V-5557H8237ZM8245 3627H-4629V3647H8245V3627ZM-4621 3635V-5557H-4641V3635H-4621ZM-4629 3627C-4624.58 3627 -4621 3630.58 -4621 3635H-4641C-4641 3641.63 -4635.62 3647 -4629 3647V3627ZM8237 3635C8237 3630.58 8240.58 3627 8245 3627V3647C8251.63 3647 8257 3641.63 8257 3635H8237ZM8245 -5549C8240.58 -5549 8237 -5552.58 8237 -5557H8257C8257 -5563.63 8251.62 -5569 8245 -5569V-5549ZM-4629 -5569C-4635.63 -5569 -4641 -5563.63 -4641 -5557H-4621C-4621 -5552.58 -4624.58 -5549 -4629 -5549V-5569Z" fill="black"/>
</g>
<defs>
<filter id="filter0_d_0_1" x="-437" y="-19" width="1448" height="88" filterUnits="userSpaceOnUse" color-interpolation-filters="sRGB">
<feFlood flood-opacity="0" result="BackgroundImageFix"/>
<feColorMatrix in="SourceAlpha" type="matrix" values="0 0 0 0 0 0 0 0 0 0 0 0 0 0 0 0 0 0 127 0" result="hardAlpha"/>
<feOffset dy="4"/>
<feGaussianBlur stdDeviation="2"/>
<feComposite in2="hardAlpha" operator="out"/>
<feColorMatrix type="matrix" values="0 0 0 0 0 0 0 0 0 0 0 0 0 0 0 0 0 0 0.25 0"/>
<feBlend mode="normal" in2="BackgroundImageFix" result="effect1_dropShadow_0_1"/>
<feBlend mode="normal" in="SourceGraphic" in2="effect1_dropShadow_0_1" result="shape"/>
</filter>
<clipPath id="clip0_0_1">
<rect width="1440" height="1024" fill="white" transform="translate(-434 -19)"/>
</clipPath>
</defs>
</svg>
