<svg version="1.1" id="Layer_1" xmlns="http://www.w3.org/2000/svg" xmlns:xlink="http://www.w3.org/1999/xlink" x="0px" y="0px"
	 width="100%" viewBox="0 0 324 589" enable-background="new 0 0 324 589" xml:space="preserve">
<path fill="#FDFDFD" opacity="1.000000" stroke="none" 
	d="
M101.000000,590.000000 
	C69.979103,590.000000 38.958210,590.000000 7.500904,589.546997 
	C7.031149,586.066345 6.997805,583.038635 7.252636,579.758118 
	C7.343278,577.331726 7.145745,575.158264 6.950090,572.517090 
	C6.950891,494.371429 6.949812,416.693512 7.255037,338.726501 
	C7.698968,331.996277 7.951904,325.554504 7.919433,319.114197 
	C7.905783,316.406799 7.288764,313.702423 6.950103,310.597351 
	C6.951423,309.133179 6.948676,308.068268 7.252061,306.717651 
	C7.697500,304.790802 7.958284,303.149719 7.958631,301.508575 
	C7.973419,231.446823 7.965244,161.385071 7.957747,91.323326 
	C7.957622,90.158813 8.235688,88.868118 7.821778,87.869240 
	C7.483286,87.052361 6.304828,86.583542 5.413412,85.503098 
	C5.406209,80.411842 5.484349,75.777908 5.924578,71.092148 
	C8.951202,67.568748 8.678160,63.987816 5.476952,61.422329 
	C5.438437,58.044876 5.508958,55.096069 5.940012,52.094131 
	C8.952442,48.542725 8.675131,44.980938 5.471119,42.407524 
	C5.417764,35.355770 5.478321,28.747423 5.889451,22.095020 
	C8.829219,19.649059 9.590159,17.466932 5.398586,15.480830 
	C5.386100,13.777064 5.471820,12.460829 5.888925,11.107280 
	C9.012422,9.148741 8.939193,7.718099 5.396769,6.652640 
	C5.293394,6.441549 5.307186,5.971662 5.609538,5.812634 
	C6.607927,4.102405 7.303963,2.551202 8.000000,1.000000 
	C9.066669,1.000000 10.133339,1.000000 11.363611,1.314838 
	C12.311033,2.265455 13.094851,2.901235 13.878670,3.537014 
	C14.252446,2.691343 14.626224,1.845671 15.000000,1.000000 
	C16.388889,1.000000 17.777779,1.000000 19.364792,1.335522 
	C20.665657,2.300814 21.768396,2.930584 22.871136,3.560353 
	C23.247423,2.706902 23.623711,1.853451 24.000000,1.000000 
	C82.354225,1.000000 140.708450,1.000000 199.388489,1.348330 
	C200.466232,1.926085 201.218155,2.155510 201.970093,2.384935 
	C201.980057,1.923290 201.990036,1.461645 202.000000,1.000000 
	C202.750000,1.000000 203.500000,1.000000 204.286285,1.290411 
	C205.910141,2.598112 207.390060,4.214583 209.105057,4.522708 
	C214.721512,5.531779 220.435806,5.980122 226.089401,6.802688 
	C233.048187,7.815152 240.059189,8.658025 246.898361,10.225483 
	C250.447998,11.039021 253.676025,13.255903 256.989929,15.188007 
	C255.106049,15.923769 253.281570,16.310350 250.992981,16.795279 
	C251.830139,17.903215 252.309296,19.053738 253.171051,19.594028 
	C258.757690,23.096720 264.361328,26.583460 270.095642,29.835159 
	C273.430298,31.726101 274.725006,34.111744 274.158691,37.996155 
	C273.823364,40.296181 274.577942,42.755112 274.842438,45.142593 
	C276.989105,44.499352 279.277557,44.128281 281.229553,43.111385 
	C282.411285,42.495773 282.947876,40.747559 284.005707,39.754826 
	C284.841614,38.970402 286.030304,38.561935 287.214722,38.250572 
	C288.004242,39.309826 288.641296,40.105007 288.931335,41.038902 
	C282.696533,44.559830 281.865936,46.393185 284.206360,50.350193 
	C286.206238,48.202698 288.243317,46.015221 290.535065,44.054901 
	C292.611267,47.504765 294.432831,50.727470 295.851837,53.960434 
	C293.531616,53.363838 291.613922,52.756989 289.521057,52.094704 
	C290.286102,59.386620 291.984650,60.853382 298.373932,60.258652 
	C299.018097,61.061222 299.710083,61.528824 299.797089,62.090183 
	C301.287445,71.706245 302.703033,81.333900 303.807739,91.236145 
	C303.321106,93.480385 303.023132,95.447433 303.022522,97.414589 
	C302.998230,176.276382 303.000824,255.138199 302.603882,333.908325 
	C301.805573,331.816559 301.053589,329.816742 301.051819,327.816315 
	C300.990692,258.551392 301.002411,189.286453 300.989166,120.021507 
	C300.988831,118.176170 300.827698,116.330872 300.741547,114.485550 
	C300.297852,114.461571 299.854156,114.437599 299.410461,114.413620 
	C299.001129,115.928055 298.219025,117.448509 298.243378,118.955948 
	C298.394653,128.328308 298.947174,137.697403 298.961914,147.068222 
	C299.040253,196.852280 299.065796,246.636658 298.953094,296.420593 
	C298.923767,309.365997 298.393494,322.312103 297.964264,335.253662 
	C297.833313,339.202393 299.262726,340.492798 303.073975,339.056824 
	C303.163605,339.104767 303.346497,339.193604 303.316132,339.631104 
	C303.945190,346.728973 300.852966,352.436035 298.526276,358.306213 
	C297.787323,360.170471 296.393494,361.775208 295.120575,363.127930 
	C294.941803,360.328369 294.941803,357.899628 294.941803,355.577087 
	C290.487518,357.128113 287.282013,364.170715 289.685486,367.452576 
	C291.553589,366.267151 293.405975,365.091705 295.257507,364.292847 
	C294.495667,366.109619 293.734619,367.549866 292.632568,369.047302 
	C291.859436,370.066010 291.427277,371.027527 290.953369,372.317200 
	C289.681152,374.137634 288.450653,375.629883 286.838684,377.050964 
	C283.247375,375.540283 280.037567,374.100800 276.090149,372.330566 
	C277.202148,380.013885 272.803070,387.143646 267.652191,387.987061 
	C262.387268,388.849121 262.236267,389.195099 264.795197,394.078766 
	C265.333038,395.105255 265.723633,396.208923 266.025024,397.349365 
	C265.867981,397.421753 265.562500,397.259521 265.144897,397.180573 
	C263.953796,396.860809 263.027588,396.815002 262.431305,396.347961 
	C258.130920,392.980194 256.842987,393.300537 254.625488,398.037170 
	C255.857452,399.865814 256.933167,401.462555 257.703278,403.234589 
	C253.069870,405.666901 248.742065,407.923889 244.007629,410.099548 
	C242.588043,409.476807 241.561005,408.467102 240.565262,408.497070 
	C238.796967,408.550354 237.047623,409.234039 235.290344,409.653961 
	C236.411285,410.781067 237.412323,412.079498 238.694183,412.976685 
	C239.588669,413.602722 240.867813,413.679230 242.043213,414.351318 
	C242.236557,415.399628 242.361801,416.097839 242.041656,416.849365 
	C239.811264,417.247894 238.024811,417.850647 236.241806,417.840576 
	C235.189957,417.834656 233.611923,417.118774 233.194534,416.268555 
	C231.947083,413.727509 231.155167,410.962830 230.022659,407.836212 
	C233.882538,403.276093 240.565109,406.709595 247.258240,404.762817 
	C242.907379,402.796234 240.101181,401.036346 237.051422,400.333984 
	C235.226364,399.913635 232.891266,400.862274 231.016205,401.707520 
	C228.360046,402.904877 225.819382,404.435150 223.427811,406.107025 
	C222.388779,406.833374 221.338745,408.227417 221.249863,409.391205 
	C221.189789,410.177826 222.686981,411.277557 223.698288,411.888489 
	C224.464020,412.351013 225.562515,412.262634 225.898041,412.317963 
	C226.952347,416.734680 227.894028,420.679626 229.209045,426.188599 
	C231.976425,418.827911 238.265945,423.409332 242.746918,419.830475 
	C242.203079,422.582855 241.814758,424.548218 241.584976,425.711151 
	C245.322571,428.037384 248.492676,430.010437 251.489655,431.875732 
	C251.317596,434.134735 250.204926,437.017944 251.184967,438.294281 
	C253.285645,441.030090 252.396973,442.510315 250.723404,444.741791 
	C249.945770,445.778687 249.740540,448.155334 250.412292,449.178741 
	C251.799103,451.291473 253.948227,452.903839 255.583527,454.523682 
	C260.048309,450.447266 264.329437,446.538513 268.884216,442.749023 
	C269.536865,443.551361 269.915894,444.234497 269.921143,444.978363 
	C265.556610,446.897278 263.174683,449.973145 262.356537,454.233978 
	C266.762482,453.716095 271.029480,453.214569 275.253357,452.768738 
	C275.210266,452.824493 275.283661,452.723816 275.222473,453.137756 
	C275.456787,455.155426 275.692352,456.773010 276.059509,458.360168 
	C276.966949,462.282776 279.005859,463.180542 282.555542,460.785645 
	C289.880402,473.698120 296.887939,486.417847 303.998932,499.079468 
	C304.781006,500.472076 306.156525,501.531494 307.154785,502.822632 
	C307.052765,502.899841 307.279388,502.781036 307.046509,503.150330 
	C307.255280,505.367523 307.472260,507.312775 308.216217,509.029694 
	C308.726532,510.207367 309.969696,511.067474 311.136719,512.415405 
	C311.374207,513.325684 311.360291,513.890015 311.094421,514.291565 
	C310.785339,514.311157 310.728180,514.493530 310.671021,514.675903 
	C310.888794,514.571838 311.106567,514.467773 311.398132,514.426392 
	C311.471985,514.489075 311.596497,514.637451 311.370544,515.027527 
	C311.183594,516.734314 310.905792,518.158264 311.309662,519.351501 
	C316.535522,534.789734 318.640350,550.727905 318.831177,567.187073 
	C318.246033,569.798096 316.447418,572.499634 320.282654,574.284912 
	C320.295227,578.690735 320.023529,582.812195 319.304199,586.950439 
	C303.051758,586.978638 287.245087,586.876038 271.444305,587.134033 
	C269.281189,587.169373 267.147400,589.000366 265.000000,590.000000 
	C257.645752,590.000000 250.291504,590.000000 242.393677,589.637329 
	C237.811188,586.394775 230.406937,586.756409 227.000000,590.000000 
	C223.969406,590.000000 220.938812,590.000000 217.502869,589.664124 
	C215.449158,589.128235 213.800812,588.928284 211.967941,588.289185 
	C211.253113,587.560486 210.722778,587.270874 210.286591,586.485840 
	C210.681168,585.839783 210.981644,585.689087 211.521301,585.904663 
	C219.828308,582.822754 219.774246,582.826965 219.052917,573.545471 
	C218.834824,570.739136 219.057587,567.901001 218.976227,565.080322 
	C218.942612,563.914673 218.640182,562.756836 218.460007,561.595398 
	C218.007767,561.622498 217.555542,561.649597 217.103302,561.676636 
	C217.103302,566.932373 217.103302,572.188049 217.103302,577.679871 
	C214.984039,577.354065 213.702896,577.157104 212.322174,576.600586 
	C212.305115,575.508179 212.387650,574.775330 212.846863,574.002991 
	C213.736542,573.614441 214.685944,573.278320 214.696732,572.914429 
	C214.847382,567.837036 214.954361,562.753479 214.809494,557.678894 
	C214.792557,557.085449 213.213348,556.536560 212.238953,555.568542 
	C212.071976,553.783447 212.024445,552.396851 212.280121,550.726685 
	C212.721817,546.627136 212.860306,542.811157 213.416321,538.993896 
	C216.566620,539.267273 217.368866,537.669312 216.953430,535.400208 
	C216.580200,533.361755 215.793518,531.398987 215.189240,529.402832 
	C214.460098,531.270203 213.730972,533.137512 212.597000,535.005249 
	C211.383530,535.039551 210.574921,535.073425 209.578491,535.037842 
	C209.207428,534.719543 208.967438,534.638428 208.616425,534.349548 
	C208.533401,532.963379 208.504608,531.952576 208.692230,530.656677 
	C208.898071,529.547119 209.071060,528.669373 208.849960,527.905823 
	C204.034821,511.276581 199.293655,494.557831 190.446594,479.538574 
	C187.843475,475.119354 187.086182,469.006683 181.188324,466.845398 
	C181.152985,466.844116 181.166458,466.774689 181.214081,466.438904 
	C180.621506,465.332336 179.981293,464.561523 179.290863,463.772034 
	C179.240646,463.753326 179.235199,463.646271 179.279694,463.307739 
	C178.313751,461.916870 177.303314,460.864532 176.250015,459.798218 
	C176.207169,459.784210 176.211838,459.694183 176.262177,459.345123 
	C174.608597,457.284973 172.904694,455.573883 170.951813,453.667755 
	C169.880768,452.534393 169.058685,451.596100 168.270782,450.302124 
	C166.519058,447.637634 164.733154,445.328796 163.253967,442.892975 
	C165.041458,442.178589 166.522247,441.591187 168.274597,440.779480 
	C169.141953,439.380798 169.938324,438.260834 170.275833,437.016388 
	C170.597397,435.830811 170.604355,434.486847 170.393585,433.274414 
	C170.330322,432.910553 168.509079,432.443878 168.450333,432.550720 
	C167.852951,433.636902 167.453705,434.832031 166.624268,435.997070 
	C165.500351,435.996399 164.751083,435.995331 163.893402,435.775635 
	C163.585602,435.284393 163.325012,435.096863 162.796204,434.733185 
	C161.726547,434.313446 160.863876,434.154877 159.965363,433.646790 
	C158.731903,431.731445 157.352875,430.270630 156.373749,428.578369 
	C154.209869,424.838562 151.954147,425.766479 149.742706,427.334625 
	C151.358734,430.011902 152.649048,432.149567 153.583328,434.211212 
	C147.529663,430.305359 142.010132,426.170746 136.094620,422.713837 
	C126.064186,416.852295 115.952278,410.828064 103.097153,413.253967 
	C102.547501,414.136627 102.363815,415.091003 102.149025,416.510101 
	C102.125725,470.363892 102.159668,523.753052 102.091881,577.142029 
	C102.086441,581.428467 101.380447,585.714050 101.000000,590.000000 
M185.681717,328.143738 
	C186.121826,327.672180 186.561935,327.200623 187.495132,326.487000 
	C187.858185,326.443665 188.221252,326.400360 189.305481,326.807953 
	C191.945175,325.691864 194.584885,324.575775 197.716171,323.122467 
	C197.868317,322.757202 198.020462,322.391907 198.909225,322.005096 
	C203.907303,320.638641 209.654205,311.284485 208.894730,305.100525 
	C209.276688,302.070892 209.658661,299.041229 210.805344,295.825989 
	C210.834244,292.541595 210.863144,289.257172 210.844528,285.130859 
	C211.078156,282.156036 211.536453,279.178864 211.505600,276.206787 
	C211.386551,264.741669 210.894073,253.277390 210.935059,241.814224 
	C211.055786,208.048264 211.364868,174.282990 211.859833,139.547531 
	C211.917938,136.371552 211.976044,133.195587 212.836105,130.006165 
	C214.221161,129.625168 215.606201,129.244171 216.991257,128.863159 
	C216.838348,128.317688 216.685425,127.772217 216.532516,127.226738 
	C215.028976,127.479698 213.525436,127.732658 212.010162,127.056442 
	C211.825531,123.506149 211.640900,119.955856 211.155746,115.838394 
	C210.690918,112.414879 210.226105,108.991356 209.847961,104.769791 
	C209.123550,104.223549 208.399139,103.677299 207.251343,102.658615 
	C206.461029,101.193542 205.670715,99.728470 204.949463,97.463570 
	C203.923615,96.661453 202.897766,95.859337 201.274536,94.740776 
	C197.840485,93.230019 194.406433,91.719261 190.874832,89.404488 
	C189.722046,89.023567 188.569244,88.642647 186.561493,88.410110 
	C158.890579,88.383499 131.219666,88.356888 102.726677,88.194550 
	C102.270294,88.986984 101.813911,89.779419 101.460526,91.386444 
	C101.417961,159.680634 101.375404,227.974823 101.272598,296.283661 
	C101.272598,296.283661 101.257980,296.343903 100.468895,296.020569 
	C99.339020,296.111786 98.209145,296.203003 96.788872,295.729614 
	C96.217590,296.203003 95.646317,296.676392 94.882973,297.602417 
	C94.581833,297.865875 94.540161,298.165558 94.069016,298.604218 
	C93.373734,298.646454 92.678459,298.688690 91.377502,298.179535 
	C87.101486,298.244110 82.825470,298.308655 77.805252,298.189606 
	C77.216492,298.819885 76.627739,299.450195 75.573524,300.536469 
	C74.735291,300.751434 73.897064,300.966431 72.691818,300.610260 
	C71.919106,301.591949 71.146400,302.573669 70.433151,304.071167 
	C70.364471,304.408783 70.295792,304.746368 69.483177,305.123291 
	C69.071251,307.102509 68.659317,309.081726 68.276588,311.908325 
	C68.093544,313.588959 67.910500,315.269623 67.036865,317.156067 
	C66.364098,320.094360 65.513206,323.012085 65.169937,325.988373 
	C65.101891,326.578430 66.982079,327.393158 68.474449,328.284485 
	C69.032562,328.739471 69.590668,329.194458 70.009308,330.433380 
	C69.703804,331.759979 69.398293,333.086578 69.092781,334.413208 
	C69.609482,334.791260 70.126183,335.169281 70.642891,335.547333 
	C72.420815,333.677643 74.198746,331.807953 76.652191,329.542023 
	C84.133186,329.618622 91.615219,329.815491 99.094986,329.750397 
	C127.058929,329.507111 155.022125,329.177979 183.232834,329.357147 
	C183.829147,329.035889 184.425446,328.714630 185.681717,328.143738 
M258.189484,383.461823 
	C259.426727,382.923187 261.017242,382.693726 261.820770,381.775574 
	C263.117706,380.293640 263.941498,378.378845 264.773865,376.559387 
	C264.820007,376.458496 262.721069,374.886139 262.300842,375.137238 
	C257.694702,377.889252 253.220474,376.768738 248.665771,375.137360 
	C248.291000,375.003113 247.632919,375.659851 245.497833,376.832855 
	C247.560028,377.818359 248.845352,378.432587 249.698578,378.840332 
	C248.813889,381.334808 248.086121,383.386902 247.358353,385.438965 
	C248.934891,385.867828 250.511429,386.296661 252.515457,386.841797 
	C253.260025,389.357880 254.852036,392.345306 258.460022,390.435547 
	C261.307068,388.928528 260.236969,386.271088 258.189484,383.461823 
M213.999390,114.172295 
	C214.203568,115.325653 214.407761,116.479012 214.611938,117.632370 
	C215.165039,117.643440 215.718140,117.654503 216.271240,117.665565 
	C216.563400,115.231903 215.955582,111.924011 217.313751,110.525826 
	C221.672150,106.038986 218.149231,102.635582 216.364624,99.123093 
	C215.872635,98.154716 213.558151,98.112289 212.079910,97.644997 
	C212.244171,99.026176 212.300201,100.431213 212.598007,101.782974 
	C213.047699,103.824066 213.876892,105.800117 214.148895,107.856194 
	C214.384659,109.638191 214.070099,111.492996 213.999390,114.172295 
M216.840164,293.947113 
	C216.290070,292.763214 215.739975,291.579285 214.742493,289.432495 
	C213.294678,300.184082 213.112244,305.846985 220.862793,306.224731 
	C219.542374,302.340698 218.250839,298.541626 216.840164,293.947113 
M301.001221,97.740128 
	C300.851044,96.012657 300.700897,94.285179 300.550720,92.557701 
	C298.136566,98.627365 296.662354,104.551773 299.467957,110.334465 
	C299.979065,110.340256 300.490143,110.346046 301.001221,110.351837 
	C301.001221,106.456848 301.001221,102.561859 301.001221,97.740128 
M290.396179,63.023392 
	C287.243317,56.819405 287.243317,56.819405 283.415192,59.125618 
	C284.504272,61.100834 285.454346,63.174225 286.747589,65.005249 
	C287.302032,65.790276 288.570038,66.071304 289.513824,66.581337 
	C289.924774,65.615463 290.335724,64.649590 290.396179,63.023392 
M188.416519,462.942535 
	C189.209045,461.932831 190.001587,460.923126 190.794113,459.913422 
	C189.366257,458.982513 188.009216,457.884186 186.464111,457.230408 
	C186.041718,457.051666 185.054642,458.207428 184.326675,458.750763 
	C185.438141,460.150879 186.549622,461.550964 188.416519,462.942535 
M251.940979,392.652588 
	C250.937531,391.834473 249.934067,391.016357 248.930603,390.198242 
	C248.065567,391.326569 246.998428,392.366821 246.447418,393.631927 
	C246.259720,394.062866 247.661865,395.761292 247.842194,395.686523 
	C249.273682,395.092621 250.585739,394.210754 251.940979,392.652588 
M90.862526,291.045074 
	C90.432243,291.416046 90.001961,291.786987 89.571671,292.157990 
	C91.500130,292.662170 93.414978,293.253571 95.374420,293.559113 
	C95.616783,293.596893 96.096428,292.112823 96.466110,291.333984 
	C94.837059,291.224701 93.208015,291.115448 90.862526,291.045074 
M315.474731,584.405884 
	C315.573639,582.790161 315.672577,581.174377 315.771515,579.558655 
	C315.114288,579.597351 314.457062,579.636047 313.799835,579.674683 
	C314.133362,581.325806 314.466919,582.976929 315.474731,584.405884 
M98.962753,286.050415 
	C98.881165,284.558258 98.799576,283.066101 98.717987,281.573944 
	C98.078346,281.777191 97.438705,281.980408 96.799065,282.183624 
	C97.476723,283.717773 98.154373,285.251892 98.962753,286.050415 
M299.003876,84.502869 
	C299.206238,85.486786 299.408600,86.470703 299.610992,87.454628 
	C299.878540,87.414200 300.146088,87.373772 300.413635,87.333344 
	C300.413635,85.429314 300.413635,83.525284 300.413635,81.621262 
	C300.115082,81.603386 299.816498,81.585510 299.517944,81.567627 
	C299.348328,82.289551 299.178741,83.011467 299.003876,84.502869 
M274.726715,464.429932 
	C274.934021,465.538300 275.141327,466.646667 275.348633,467.755035 
	C275.928436,467.528992 276.508240,467.302948 277.088013,467.076904 
	C276.520538,466.174164 275.953064,465.271423 274.726715,464.429932 
M222.270355,420.095306 
	C222.768372,420.040527 223.266373,419.985779 223.764389,419.931000 
	C223.649811,419.485382 223.535233,419.039764 223.420670,418.594147 
	C222.995377,418.895691 222.570084,419.197235 222.270355,420.095306 
M269.295105,381.434723 
	C269.010925,381.705841 268.726746,381.976990 268.442596,382.248138 
	C268.555023,382.365753 268.759003,382.591858 268.766663,382.585358 
	C269.066406,382.332367 269.348236,382.058105 269.295105,381.434723 
z"/>
<path fill="#000000" opacity="1.000000" stroke="none" 
	d="
M311.346375,514.454346 
	C311.360291,513.890015 311.374207,513.325684 311.172913,512.026917 
	C309.731598,508.455322 308.505493,505.618195 307.279388,502.781036 
	C307.279388,502.781036 307.052765,502.899841 307.315308,502.456177 
	C298.329529,478.270142 284.702362,457.254456 267.643646,438.441650 
	C260.971100,431.082947 253.969406,424.015991 246.959930,416.973083 
	C244.517532,414.519043 244.545471,413.059235 247.681427,411.429596 
	C251.604141,409.391113 255.483994,407.230377 259.195862,404.833588 
	C269.168152,398.394501 279.053650,391.816650 286.536926,381.891052 
	C291.802246,373.428284 297.426025,365.493164 301.762085,356.907684 
	C309.618622,341.351593 306.454163,324.126862 307.518127,307.652344 
	C308.496277,292.506958 306.879486,277.210907 306.847046,261.980286 
	C306.727539,205.872726 307.047638,149.762527 306.561127,93.658905 
	C306.468170,82.939293 304.390259,71.998428 301.615295,61.589622 
	C295.628418,39.133362 281.346283,23.243038 260.317200,13.306232 
	C248.242203,7.600478 235.477692,4.734194 222.327484,3.116657 
	C221.149353,2.971742 220.105972,1.731531 219.000000,0.999999 
	C254.333328,1.000000 289.666656,1.000000 325.000000,1.000000 
	C325.000000,196.000000 325.000824,391.000000 324.989014,586.000000 
	C324.988892,588.016968 326.016388,590.928955 321.505981,589.590515 
	C321.536469,585.296814 322.689484,581.376282 322.467438,577.535217 
	C321.804169,566.062988 321.305298,554.503052 319.396088,543.204834 
	C317.759399,533.519653 314.267761,524.147827 311.596497,514.637451 
	C311.596497,514.637451 311.471985,514.489075 311.369507,514.457581 
	C311.267059,514.426086 311.346375,514.454346 311.346375,514.454346 
z"/>
<path fill="#000000" opacity="1.000000" stroke="none" 
	d="
M168.236603,450.657776 
	C169.058685,451.596100 169.880768,452.534393 170.916367,454.011108 
	C172.823868,456.264374 174.517853,457.979279 176.211853,459.694183 
	C176.211838,459.694183 176.207169,459.784210 176.169174,460.139832 
	C177.165863,461.545746 178.200531,462.596008 179.235199,463.646271 
	C179.235199,463.646271 179.240646,463.753326 179.193390,464.106995 
	C179.819580,465.231995 180.493011,466.003326 181.166458,466.774689 
	C181.166458,466.774689 181.152985,466.844116 181.130890,467.209320 
	C191.377518,482.742065 198.582779,499.335022 204.007065,516.758667 
	C205.480453,521.491394 206.985367,526.214294 208.475800,530.941711 
	C208.504608,531.952576 208.533401,532.963379 208.425491,534.699890 
	C208.636307,536.605896 208.983810,537.786255 209.345642,539.271118 
	C209.394302,539.980347 209.428635,540.385071 209.293060,541.237183 
	C209.427963,555.445740 209.711899,569.207520 210.093567,582.966736 
	C210.114716,583.729187 210.945816,584.469177 211.354446,585.275391 
	C211.308960,585.331055 211.282104,585.538330 211.282104,585.538330 
	C210.981644,585.689087 210.681168,585.839783 210.182465,586.716980 
	C209.989471,588.295654 209.994736,589.147827 210.000000,590.000000 
	C175.312439,590.000000 140.624878,590.000000 105.390976,589.536682 
	C104.836159,533.511475 104.830574,477.949646 104.815704,422.387787 
	C104.813766,415.134857 106.546349,413.633301 113.759354,414.871246 
	C115.047531,415.092316 116.303703,415.568878 117.537384,416.027710 
	C130.629379,420.896698 142.044693,428.623810 153.203354,437.210693 
	C153.905746,437.904602 154.516663,438.328613 155.263977,439.015686 
	C155.929977,439.529938 156.459579,439.781128 157.115417,440.342651 
	C160.906631,443.987885 164.571625,447.322815 168.236603,450.657776 
z"/>
<path fill="#040404" opacity="1.000000" stroke="none" 
	d="
M4.000000,590.000000 
	C2.345619,589.951904 0.128297,590.621460 0.975728,587.493408 
	C1.143994,586.872314 1.000000,586.166687 1.000000,585.500000 
	C1.000000,392.166656 0.993336,198.833328 1.141567,5.500109 
	C1.142556,4.210756 -1.328458,0.872537 3.891388,1.277152 
	C4.443388,3.047709 4.103998,4.541114 3.525402,6.361519 
	C3.274308,37.674118 3.259557,68.659714 3.251125,99.645317 
	C3.233130,165.778152 3.211549,231.910980 3.252186,298.043793 
	C3.252988,299.348724 3.998717,300.653198 4.386297,302.371948 
	C4.510654,304.138092 4.645616,305.490204 4.526270,307.229431 
	C4.432028,308.797791 4.592092,309.979095 4.593476,311.589539 
	C4.432830,317.359192 4.430866,322.699677 4.054028,328.229309 
	C3.877954,332.269653 4.076754,336.120789 4.233902,340.418945 
	C4.226573,343.260620 4.260896,345.655243 4.008889,348.339447 
	C3.551028,362.902130 3.360518,377.175140 3.256718,391.448792 
	C3.250705,392.275513 3.948754,393.107391 4.312619,394.409119 
	C4.300235,452.830963 4.290345,510.780518 4.311647,568.730103 
	C4.312183,570.187927 4.656651,571.645691 4.681307,573.504517 
	C4.631058,575.899170 4.740216,577.892761 4.620088,580.292969 
	C4.260535,583.799805 4.130268,586.899902 4.000000,590.000000 
z"/>
<path fill="#B6B6B6" opacity="1.000000" stroke="none" 
	d="
M218.535355,0.999999 
	C220.105972,1.731531 221.149353,2.971742 222.327484,3.116657 
	C235.477692,4.734194 248.242203,7.600478 260.317200,13.306232 
	C281.346283,23.243038 295.628418,39.133362 301.615295,61.589622 
	C304.390259,71.998428 306.468170,82.939293 306.561127,93.658905 
	C307.047638,149.762527 306.727539,205.872726 306.847046,261.980286 
	C306.879486,277.210907 308.496277,292.506958 307.518127,307.652344 
	C306.454163,324.126862 309.618622,341.351593 301.762085,356.907684 
	C297.426025,365.493164 291.802246,373.428284 286.169922,381.824646 
	C285.334686,381.960541 285.088470,381.928314 284.906403,381.560974 
	C285.720398,379.857910 286.470276,378.490021 287.220154,377.122131 
	C288.450653,375.629883 289.681152,374.137634 291.244904,372.181824 
	C292.043304,370.808899 292.508453,369.899506 292.973602,368.990112 
	C293.734619,367.549866 294.495667,366.109619 295.276672,364.190247 
	C295.296692,363.711121 295.299347,363.498718 295.299347,363.498718 
	C296.393494,361.775208 297.787323,360.170471 298.526276,358.306213 
	C300.852966,352.436035 303.945190,346.728973 303.669891,339.476135 
	C304.372375,337.148743 304.968201,335.413910 304.969208,333.678772 
	C305.016357,254.695892 305.017578,175.712967 304.975800,96.730080 
	C304.974792,94.806236 304.427551,92.882690 304.135040,90.959007 
	C302.703033,81.333900 301.287445,71.706245 299.797089,62.090183 
	C299.710083,61.528824 299.018097,61.061222 298.373047,59.875793 
	C297.510406,57.451130 296.882385,55.700657 296.254364,53.950180 
	C294.432831,50.727470 292.611267,47.504765 290.492188,43.736221 
	C289.889252,42.426987 289.583801,41.663589 289.278351,40.900192 
	C288.641296,40.105007 288.004242,39.309826 287.093750,37.933212 
	C280.351410,27.239061 269.930603,21.845421 260.432770,15.370729 
	C259.580261,14.789570 258.189911,14.997409 257.049347,14.838823 
	C253.676025,13.255903 250.447998,11.039021 246.898361,10.225483 
	C240.059189,8.658025 233.048187,7.815152 226.089401,6.802688 
	C220.435806,5.980122 214.721512,5.531779 209.105057,4.522708 
	C207.390060,4.214583 205.910141,2.598112 204.661285,1.290411 
	C209.356903,1.000000 213.713806,1.000000 218.535355,0.999999 
z"/>
<path fill="#A8A8A8" opacity="1.000000" stroke="none" 
	d="
M153.111877,436.940735 
	C142.044693,428.623810 130.629379,420.896698 117.537384,416.027710 
	C116.303703,415.568878 115.047531,415.092316 113.759354,414.871246 
	C106.546349,413.633301 104.813766,415.134857 104.815704,422.387787 
	C104.830574,477.949646 104.836159,533.511475 104.922318,589.536682 
	C103.933327,590.000000 102.866661,590.000000 101.399994,590.000000 
	C101.380447,585.714050 102.086441,581.428467 102.091881,577.142029 
	C102.159668,523.753052 102.125725,470.363892 102.392181,416.317261 
	C102.931999,414.881714 103.197556,414.103699 103.463120,413.325714 
	C115.952278,410.828064 126.064186,416.852295 136.094620,422.713837 
	C142.010132,426.170746 147.529663,430.305359 153.687012,434.449066 
	C154.331848,435.232330 154.516968,435.701691 154.507233,436.265503 
	C153.912201,436.553558 153.512039,436.747131 153.111877,436.940735 
z"/>
<path fill="#A1A1A1" opacity="1.000000" stroke="none" 
	d="
M311.370544,515.027527 
	C314.267761,524.147827 317.759399,533.519653 319.396088,543.204834 
	C321.305298,554.503052 321.804169,566.062988 322.467438,577.535217 
	C322.689484,581.376282 321.536469,585.296814 321.005981,589.590515 
	C320.555542,590.000000 320.111115,590.000000 319.315094,589.675720 
	C319.226318,588.545471 319.489075,587.739563 319.751831,586.933594 
	C320.023529,582.812195 320.295227,578.690735 320.280273,573.888123 
	C319.708099,571.116821 319.422546,569.026672 319.136993,566.936584 
	C318.640350,550.727905 316.535522,534.789734 311.309662,519.351501 
	C310.905792,518.158264 311.183594,516.734314 311.370544,515.027527 
z"/>
<path fill="#EBEBEB" opacity="1.000000" stroke="none" 
	d="
M319.304199,586.950439 
	C319.489075,587.739563 319.226318,588.545471 318.981750,589.675720 
	C301.312439,590.000000 283.624878,590.000000 265.468658,590.000000 
	C267.147400,589.000366 269.281189,587.169373 271.444305,587.134033 
	C287.245087,586.876038 303.051758,586.978638 319.304199,586.950439 
z"/>
<path fill="#A1A1A1" opacity="1.000000" stroke="none" 
	d="
M227.466125,590.000000 
	C230.406937,586.756409 237.811188,586.394775 241.925049,589.637329 
	C237.310745,590.000000 232.621490,590.000000 227.466125,590.000000 
z"/>
<path fill="#B6B6B6" opacity="1.000000" stroke="none" 
	d="
M4.375000,590.000000 
	C4.130268,586.899902 4.260535,583.799805 4.884765,580.254883 
	C5.907306,579.876953 6.435885,579.943970 6.964462,580.010986 
	C6.997805,583.038635 7.031149,586.066345 7.032247,589.546997 
	C6.250000,590.000000 5.500000,590.000000 4.375000,590.000000 
z"/>
<path fill="#E0E0E0" opacity="1.000000" stroke="none" 
	d="
M3.764609,6.034519 
	C4.103998,4.541114 4.443388,3.047709 4.391388,1.277152 
	C5.066669,1.000000 6.133338,1.000000 7.600004,1.000000 
	C7.303963,2.551202 6.607927,4.102405 5.221327,5.771240 
	C4.275379,5.937421 4.019994,5.985970 3.764609,6.034519 
z"/>
<path fill="#B6B6B6" opacity="1.000000" stroke="none" 
	d="
M23.600002,1.000000 
	C23.623711,1.853451 23.247423,2.706902 22.871136,3.560353 
	C21.768396,2.930584 20.665657,2.300814 19.781458,1.335522 
	C21.066669,1.000000 22.133339,1.000000 23.600002,1.000000 
z"/>
<path fill="#B6B6B6" opacity="1.000000" stroke="none" 
	d="
M14.625000,1.000000 
	C14.626224,1.845671 14.252446,2.691343 13.878670,3.537014 
	C13.094851,2.901235 12.311033,2.265455 11.763607,1.314838 
	C12.750000,1.000000 13.500000,1.000000 14.625000,1.000000 
z"/>
<path fill="#A1A1A1" opacity="1.000000" stroke="none" 
	d="
M212.152451,588.728333 
	C213.800812,588.928284 215.449158,589.128235 217.048767,589.664124 
	C215.611115,590.000000 214.222214,590.000000 212.440796,589.680420 
	C212.082993,589.149963 212.117722,588.939148 212.152451,588.728333 
z"/>
<path fill="#949494" opacity="1.000000" stroke="none" 
	d="
M211.967941,588.289185 
	C212.117722,588.939148 212.082993,589.149963 212.024139,589.680420 
	C211.555557,590.000000 211.111099,590.000000 210.333313,590.000000 
	C209.994736,589.147827 209.989471,588.295654 210.088333,587.212341 
	C210.722778,587.270874 211.253113,587.560486 211.967941,588.289185 
z"/>
<path fill="#B6B6B6" opacity="1.000000" stroke="none" 
	d="
M201.666687,1.000000 
	C201.990036,1.461645 201.980057,1.923290 201.970093,2.384935 
	C201.218155,2.155510 200.466232,1.926085 199.857147,1.348330 
	C200.444443,1.000000 200.888901,1.000000 201.666687,1.000000 
z"/>
<path fill="#000000" opacity="1.000000" stroke="none" 
	d="
M188.584320,326.357056 
	C188.221252,326.400360 187.858185,326.443665 187.102570,326.399536 
	C186.142761,326.574432 185.575500,326.836823 184.685516,327.117096 
	C183.935974,327.186859 183.509186,327.238739 182.618271,327.190765 
	C158.669647,327.143250 135.185120,327.199249 111.700607,327.246399 
	C99.705589,327.270508 87.710533,327.281464 75.715500,327.293121 
	C69.700844,327.298981 69.329384,326.959137 69.788460,321.191559 
	C70.076660,317.570740 70.444382,313.950439 70.947052,310.353790 
	C71.812706,304.159851 74.625191,301.715698 81.054787,300.852905 
	C84.726379,300.360199 88.342232,299.451996 91.983177,298.730896 
	C92.678459,298.688690 93.373734,298.646454 94.779785,298.707001 
	C97.413025,297.987823 99.335503,297.165863 101.257980,296.343903 
	C101.257980,296.343903 101.272598,296.283661 101.659225,296.208984 
	C102.977333,293.627777 104.712036,291.124023 104.720810,288.614227 
	C104.872673,245.140823 104.812256,201.666656 104.798347,158.192657 
	C104.791687,137.371445 104.787422,116.550224 104.776848,95.729004 
	C104.774796,91.684509 106.145897,89.352585 110.753929,90.603973 
	C111.843941,90.899986 113.072914,90.699547 114.238014,90.701607 
	C136.198929,90.740341 158.162170,90.614075 180.118988,90.932571 
	C185.137451,91.005379 190.398819,91.901741 195.084717,93.656914 
	C204.693726,97.256096 207.948547,105.513878 208.042374,115.014549 
	C208.361404,147.321854 208.694443,179.632599 208.548294,211.939880 
	C208.406326,243.325760 207.680847,274.709015 207.048767,306.430969 
	C203.981506,311.854553 201.077057,316.940613 198.172607,322.026642 
	C198.020462,322.391907 197.868317,322.757202 197.112213,323.119293 
	C193.866943,324.196411 191.225632,325.276733 188.584320,326.357056 
z"/>
<path fill="#949494" opacity="1.000000" stroke="none" 
	d="
M207.211594,306.093414 
	C207.680847,274.709015 208.406326,243.325760 208.548294,211.939880 
	C208.694443,179.632599 208.361404,147.321854 208.042374,115.014549 
	C207.948547,105.513878 204.693726,97.256096 195.084717,93.656914 
	C190.398819,91.901741 185.137451,91.005379 180.118988,90.932571 
	C158.162170,90.614075 136.198929,90.740341 114.238014,90.701607 
	C113.072914,90.699547 111.843941,90.899986 110.753929,90.603973 
	C106.145897,89.352585 104.774796,91.684509 104.776848,95.729004 
	C104.787422,116.550224 104.791687,137.371445 104.798347,158.192657 
	C104.812256,201.666656 104.872673,245.140823 104.720810,288.614227 
	C104.712036,291.124023 102.977333,293.627777 101.689346,296.201660 
	C101.375404,227.974823 101.417961,159.680634 101.708229,90.853256 
	C102.486870,89.656799 103.017807,88.993538 103.548752,88.330276 
	C131.219666,88.356888 158.890579,88.383499 187.141342,88.673203 
	C188.804916,89.360359 189.888657,89.784431 190.972382,90.208504 
	C194.406433,91.719261 197.840485,93.230019 201.693634,95.194695 
	C203.035294,96.520210 203.957855,97.391800 204.880417,98.263390 
	C205.670715,99.728470 206.461029,101.193542 207.533936,103.230530 
	C208.464767,104.390915 209.113022,104.979378 209.761276,105.567841 
	C210.226105,108.991356 210.690918,112.414879 210.937042,116.304550 
	C210.644699,124.371620 210.557785,131.972488 210.544418,139.573502 
	C210.543869,139.887527 211.232605,140.202759 211.600220,140.517441 
	C211.364868,174.282990 211.055786,208.048264 210.935059,241.814224 
	C210.894073,253.277390 211.386551,264.741669 211.505600,276.206787 
	C211.536453,279.178864 211.078156,282.156036 210.610535,285.860779 
	C210.264557,289.730988 210.152588,292.871307 210.040619,296.011597 
	C209.658661,299.041229 209.276688,302.070892 208.577728,305.520752 
	C207.911011,305.991760 207.561310,306.042572 207.211594,306.093414 
z"/>
<path fill="#E0E0E0" opacity="1.000000" stroke="none" 
	d="
M4.780578,306.842285 
	C4.645616,305.490204 4.510654,304.138092 4.703243,302.097534 
	C5.108726,300.086945 5.255512,298.764709 5.254723,297.442566 
	C5.213706,228.759140 5.157149,160.075714 5.124491,91.392288 
	C5.123630,89.581726 5.368487,87.771042 5.498755,85.960419 
	C6.304828,86.583542 7.483286,87.052361 7.821778,87.869240 
	C8.235688,88.868118 7.957622,90.158813 7.957747,91.323326 
	C7.965244,161.385071 7.973419,231.446823 7.958631,301.508575 
	C7.958284,303.149719 7.697500,304.790802 6.980110,306.706970 
	C5.861545,306.935455 5.321062,306.888885 4.780578,306.842285 
z"/>
<path fill="#B6B6B6" opacity="1.000000" stroke="none" 
	d="
M4.295218,348.049896 
	C4.260896,345.655243 4.226573,343.260620 4.478563,340.306152 
	C4.986355,339.462036 5.207834,339.177704 5.683329,338.910522 
	C6.274475,338.956940 6.611605,338.986237 6.948734,339.015564 
	C6.949812,416.693512 6.950891,494.371429 6.685123,572.531128 
	C5.892422,573.043091 5.366567,573.073242 4.840714,573.103455 
	C4.656651,571.645691 4.312183,570.187927 4.311647,568.730103 
	C4.290345,510.780518 4.300235,452.830963 4.575379,394.095886 
	C4.912967,379.151764 4.995675,364.993164 5.016623,350.834442 
	C5.017995,349.906647 4.546669,348.978088 4.295218,348.049896 
z"/>
<path fill="#F7F7F7" opacity="1.000000" stroke="none" 
	d="
M268.610596,442.629761 
	C264.329437,446.538513 260.048309,450.447266 255.583527,454.523682 
	C253.948227,452.903839 251.799103,451.291473 250.412292,449.178741 
	C249.740540,448.155334 249.945770,445.778687 250.723404,444.741791 
	C252.396973,442.510315 253.285645,441.030090 251.184967,438.294281 
	C250.204926,437.017944 251.317596,434.134735 251.489655,431.875732 
	C248.492676,430.010437 245.322571,428.037384 241.584976,425.711151 
	C241.814758,424.548218 242.203079,422.582855 242.746918,419.830475 
	C238.265945,423.409332 231.976425,418.827911 229.209045,426.188599 
	C227.894028,420.679626 226.952347,416.734680 225.898041,412.317963 
	C225.562515,412.262634 224.464020,412.351013 223.698288,411.888489 
	C222.686981,411.277557 221.189789,410.177826 221.249863,409.391205 
	C221.338745,408.227417 222.388779,406.833374 223.427811,406.107025 
	C225.819382,404.435150 228.360046,402.904877 231.016205,401.707520 
	C232.891266,400.862274 235.226364,399.913635 237.051422,400.333984 
	C240.101181,401.036346 242.907379,402.796234 247.258240,404.762817 
	C240.565109,406.709595 233.882538,403.276093 230.022659,407.836212 
	C231.155167,410.962830 231.947083,413.727509 233.194534,416.268555 
	C233.611923,417.118774 235.189957,417.834656 236.241806,417.840576 
	C238.024811,417.850647 239.811264,417.247894 242.341629,416.922180 
	C251.594864,425.504333 260.102722,434.067047 268.610596,442.629761 
z"/>
<path fill="#7C7C7C" opacity="1.000000" stroke="none" 
	d="
M5.413411,85.503098 
	C5.368487,87.771042 5.123630,89.581726 5.124491,91.392288 
	C5.157149,160.075714 5.213706,228.759140 5.254723,297.442566 
	C5.255512,298.764709 5.108726,300.086945 4.713848,301.683502 
	C3.998717,300.653198 3.252988,299.348724 3.252186,298.043793 
	C3.211549,231.910980 3.233130,165.778152 3.251125,99.645317 
	C3.259557,68.659714 3.274308,37.674118 3.525402,6.361519 
	C4.019994,5.985970 4.275379,5.937421 4.918975,5.930267 
	C5.307186,5.971662 5.293394,6.441549 5.270986,7.073200 
	C5.351565,8.851432 5.454552,9.998012 5.557540,11.144592 
	C5.471820,12.460829 5.386100,13.777064 5.236629,15.909643 
	C5.294876,18.530350 5.416876,20.334713 5.538877,22.139076 
	C5.478321,28.747423 5.417764,35.355770 5.291183,42.847767 
	C5.343265,46.536697 5.461372,49.341976 5.579479,52.147259 
	C5.508958,55.096069 5.438437,58.044876 5.296129,61.862160 
	C5.337057,65.535080 5.449774,68.339531 5.562490,71.143982 
	C5.484349,75.777908 5.406209,80.411842 5.413411,85.503098 
z"/>
<path fill="#EFEFEF" opacity="1.000000" stroke="none" 
	d="
M303.807739,91.236145 
	C304.427551,92.882690 304.974792,94.806236 304.975800,96.730080 
	C305.017578,175.712967 305.016357,254.695892 304.969208,333.678772 
	C304.968201,335.413910 304.372375,337.148743 303.700256,339.038635 
	C303.346497,339.193604 303.163605,339.104767 303.080139,338.639069 
	C302.997803,336.782257 302.998901,335.391113 303.000000,334.000000 
	C303.000824,255.138199 302.998230,176.276382 303.022522,97.414589 
	C303.023132,95.447433 303.321106,93.480385 303.807739,91.236145 
z"/>
<path fill="#F7F7F7" opacity="1.000000" stroke="none" 
	d="
M302.603882,333.908325 
	C302.998901,335.391113 302.997803,336.782257 302.990509,338.591125 
	C299.262726,340.492798 297.833313,339.202393 297.964264,335.253662 
	C298.393494,322.312103 298.923767,309.365997 298.953094,296.420593 
	C299.065796,246.636658 299.040253,196.852280 298.961914,147.068222 
	C298.947174,137.697403 298.394653,128.328308 298.243378,118.955948 
	C298.219025,117.448509 299.001129,115.928055 299.410461,114.413620 
	C299.854156,114.437599 300.297852,114.461571 300.741547,114.485550 
	C300.827698,116.330872 300.988831,118.176170 300.989166,120.021507 
	C301.002411,189.286453 300.990692,258.551392 301.051819,327.816315 
	C301.053589,329.816742 301.805573,331.816559 302.603882,333.908325 
z"/>
<path fill="#949494" opacity="1.000000" stroke="none" 
	d="
M91.680344,298.455200 
	C88.342232,299.451996 84.726379,300.360199 81.054787,300.852905 
	C74.625191,301.715698 71.812706,304.159851 70.947052,310.353790 
	C70.444382,313.950439 70.076660,317.570740 69.788460,321.191559 
	C69.329384,326.959137 69.700844,327.298981 75.715500,327.293121 
	C87.710533,327.281464 99.705589,327.270508 111.700607,327.246399 
	C135.185120,327.199249 158.669647,327.143250 182.614670,327.457397 
	C183.045334,328.176270 183.015472,328.528687 182.985611,328.881073 
	C155.022125,329.177979 127.058929,329.507111 99.094986,329.750397 
	C91.615219,329.815491 84.133186,329.618622 75.899033,329.686829 
	C73.480171,329.770905 71.814476,329.710175 70.148773,329.649414 
	C69.590668,329.194458 69.032562,328.739471 68.125946,327.810455 
	C67.760780,323.874359 67.744118,320.412323 67.727448,316.950256 
	C67.910500,315.269623 68.093544,313.588959 68.496750,311.229736 
	C69.220306,308.728790 69.723717,306.906372 70.227112,305.083984 
	C70.295792,304.746368 70.364471,304.408783 70.685944,303.695312 
	C71.645439,302.606750 72.352135,301.894073 73.058838,301.181427 
	C73.897064,300.966431 74.735291,300.751434 76.135864,300.293304 
	C77.315285,299.491150 77.932373,298.932190 78.549454,298.373199 
	C82.825470,298.308655 87.101486,298.244110 91.680344,298.455200 
z"/>
<path fill="#A0A0A0" opacity="1.000000" stroke="none" 
	d="
M268.884216,442.749023 
	C260.102722,434.067047 251.594864,425.504333 242.787018,416.868805 
	C242.361801,416.097839 242.236557,415.399628 242.137177,414.037903 
	C242.913452,412.309875 243.663864,411.245392 244.414276,410.180908 
	C248.742065,407.923889 253.069870,405.666901 258.056305,403.214539 
	C260.997467,401.099304 263.279968,399.179413 265.562500,397.259521 
	C265.562500,397.259521 265.867981,397.421753 266.357239,397.278534 
	C272.845093,392.055573 278.843689,386.975830 284.842285,381.896118 
	C285.088470,381.928314 285.334686,381.960541 285.947876,382.059143 
	C279.053650,391.816650 269.168152,398.394501 259.195862,404.833588 
	C255.483994,407.230377 251.604141,409.391113 247.681427,411.429596 
	C244.545471,413.059235 244.517532,414.519043 246.959930,416.973083 
	C253.969406,424.015991 260.971100,431.082947 267.643646,438.441650 
	C284.702362,457.254456 298.329529,478.270142 307.417297,502.378967 
	C306.156525,501.531494 304.781006,500.472076 303.998932,499.079468 
	C296.887939,486.417847 289.880402,473.698120 282.491699,460.464844 
	C279.855072,457.530823 277.569366,455.127319 275.283661,452.723816 
	C275.283661,452.723816 275.210266,452.824493 275.290649,452.423431 
	C273.679016,449.654114 271.986969,447.285858 270.294922,444.917603 
	C269.915894,444.234497 269.536865,443.551361 268.884216,442.749023 
z"/>
<path fill="#F5F5F5" opacity="1.000000" stroke="none" 
	d="
M256.989929,15.188004 
	C258.189911,14.997409 259.580261,14.789570 260.432770,15.370729 
	C269.930603,21.845421 280.351410,27.239061 286.941345,37.669144 
	C286.030304,38.561935 284.841614,38.970402 284.005707,39.754826 
	C282.947876,40.747559 282.411285,42.495773 281.229553,43.111385 
	C279.277557,44.128281 276.989105,44.499352 274.842438,45.142593 
	C274.577942,42.755112 273.823364,40.296181 274.158691,37.996155 
	C274.725006,34.111744 273.430298,31.726101 270.095642,29.835159 
	C264.361328,26.583460 258.757690,23.096720 253.171051,19.594028 
	C252.309296,19.053738 251.830139,17.903215 250.992981,16.795279 
	C253.281570,16.310350 255.106049,15.923769 256.989929,15.188004 
z"/>
<path fill="#F5F5F5" opacity="1.000000" stroke="none" 
	d="
M284.906403,381.560974 
	C278.843689,386.975830 272.845093,392.055573 266.514313,397.206177 
	C265.723633,396.208923 265.333038,395.105255 264.795197,394.078766 
	C262.236267,389.195099 262.387268,388.849121 267.652191,387.987061 
	C272.803070,387.143646 277.202148,380.013885 276.090149,372.330566 
	C280.037567,374.100800 283.247375,375.540283 286.838684,377.050964 
	C286.470276,378.490021 285.720398,379.857910 284.906403,381.560974 
M269.622223,390.338165 
	C269.221893,390.931915 268.821594,391.525665 268.421265,392.119415 
	C268.810303,392.260529 269.199371,392.401672 269.588409,392.542786 
	C269.801758,391.818970 270.015106,391.095184 269.622223,390.338165 
z"/>
<path fill="#F7F7F7" opacity="1.000000" stroke="none" 
	d="
M258.258057,383.835297 
	C260.236969,386.271088 261.307068,388.928528 258.460022,390.435547 
	C254.852036,392.345306 253.260025,389.357880 252.515457,386.841797 
	C250.511429,386.296661 248.934891,385.867828 247.358337,385.438965 
	C248.086121,383.386902 248.813889,381.334808 249.698578,378.840332 
	C248.845352,378.432587 247.560028,377.818359 245.497833,376.832855 
	C247.632919,375.659851 248.291000,375.003113 248.665771,375.137360 
	C253.220474,376.768738 257.694702,377.889252 262.300842,375.137238 
	C262.721069,374.886139 264.820007,376.458496 264.773865,376.559387 
	C263.941498,378.378845 263.117706,380.293640 261.820770,381.775574 
	C261.017242,382.693726 259.426727,382.923187 258.258057,383.835297 
z"/>
<path fill="#949494" opacity="1.000000" stroke="none" 
	d="
M208.692215,530.656677 
	C206.985367,526.214294 205.480453,521.491394 204.007065,516.758667 
	C198.582779,499.335022 191.377518,482.742065 181.166229,467.210632 
	C187.086182,469.006683 187.843475,475.119354 190.446594,479.538574 
	C199.293655,494.557831 204.034821,511.276581 208.849960,527.905823 
	C209.071060,528.669373 208.898071,529.547119 208.692215,530.656677 
z"/>
<path fill="#E0E0E0" opacity="1.000000" stroke="none" 
	d="
M7.255038,338.726501 
	C6.611605,338.986237 6.274475,338.956940 5.630094,338.468658 
	C5.024862,334.686493 4.726882,331.363342 4.428902,328.040161 
	C4.430866,322.699677 4.432830,317.359192 4.869356,311.615845 
	C5.851290,311.140900 6.398663,311.068787 6.946035,310.996643 
	C7.288764,313.702423 7.905783,316.406799 7.919433,319.114197 
	C7.951904,325.554504 7.698968,331.996277 7.255038,338.726501 
z"/>
<path fill="#949494" opacity="1.000000" stroke="none" 
	d="
M211.399933,585.219666 
	C210.945816,584.469177 210.114716,583.729187 210.093567,582.966736 
	C209.711899,569.207520 209.427963,555.445740 209.688873,541.310181 
	C210.828690,544.294006 211.402786,547.652161 211.976898,551.010254 
	C212.024445,552.396851 212.071976,553.783447 212.129883,556.029358 
	C212.250198,562.606628 212.360184,568.324585 212.470169,574.042542 
	C212.387650,574.775330 212.305115,575.508179 212.187088,577.046143 
	C211.901031,580.307434 211.650482,582.763550 211.399933,585.219666 
z"/>
<path fill="#F5F5F5" opacity="1.000000" stroke="none" 
	d="
M211.354446,585.275391 
	C211.650482,582.763550 211.901031,580.307434 212.286652,577.405762 
	C213.702896,577.157104 214.984039,577.354065 217.103302,577.679871 
	C217.103302,572.188049 217.103302,566.932373 217.103302,561.676636 
	C217.555542,561.649597 218.007767,561.622498 218.460007,561.595398 
	C218.640182,562.756836 218.942612,563.914673 218.976227,565.080322 
	C219.057587,567.901001 218.834824,570.739136 219.052917,573.545471 
	C219.774246,582.826965 219.828308,582.822754 211.521286,585.904663 
	C211.282104,585.538330 211.308960,585.331055 211.354446,585.275391 
M215.797180,580.392090 
	C215.793076,580.785645 215.788971,581.179199 215.784882,581.572754 
	C215.948135,581.574280 216.253281,581.586670 216.254120,581.575806 
	C216.284149,581.184326 216.285812,580.790710 215.797180,580.392090 
z"/>
<path fill="#F4F4F4" opacity="1.000000" stroke="none" 
	d="
M213.999084,113.743958 
	C214.070099,111.492996 214.384659,109.638191 214.148895,107.856194 
	C213.876892,105.800117 213.047699,103.824066 212.598007,101.782974 
	C212.300201,100.431213 212.244171,99.026176 212.079910,97.644997 
	C213.558151,98.112289 215.872635,98.154716 216.364624,99.123093 
	C218.149231,102.635582 221.672150,106.038986 217.313751,110.525826 
	C215.955582,111.924011 216.563400,115.231903 216.271240,117.665565 
	C215.718140,117.654503 215.165039,117.643440 214.611938,117.632370 
	C214.407761,116.479012 214.203568,115.325653 213.999084,113.743958 
z"/>
<path fill="#F5F5F5" opacity="1.000000" stroke="none" 
	d="
M154.702087,436.171051 
	C154.516968,435.701691 154.331848,435.232330 154.043060,434.525116 
	C152.649048,432.149567 151.358734,430.011902 149.742706,427.334625 
	C151.954147,425.766479 154.209869,424.838562 156.373749,428.578369 
	C157.352875,430.270630 158.731903,431.731445 159.968903,433.983948 
	C160.318649,435.320343 160.628998,435.970062 160.939362,436.619812 
	C161.627319,436.078003 162.315262,435.536194 163.003204,434.994385 
	C163.325012,435.096863 163.585602,435.284393 163.867966,436.096191 
	C163.632538,437.425842 163.314133,438.216278 162.736633,438.909058 
	C161.583313,439.239227 160.689102,439.667053 159.526794,440.000061 
	C158.757828,439.656769 158.256973,439.408325 157.736023,438.834290 
	C157.103912,438.077728 156.491882,437.646851 155.788605,436.943512 
	C155.365616,436.504395 155.033844,436.337738 154.702087,436.171051 
z"/>
<path fill="#F7F7F7" opacity="1.000000" stroke="none" 
	d="
M269.921143,444.978363 
	C271.986969,447.285858 273.679016,449.654114 275.333771,452.367676 
	C271.029480,453.214569 266.762482,453.716095 262.356537,454.233978 
	C263.174683,449.973145 265.556610,446.897278 269.921143,444.978363 
z"/>
<path fill="#F5F5F5" opacity="1.000000" stroke="none" 
	d="
M216.899750,294.344849 
	C218.250839,298.541626 219.542374,302.340698 220.862793,306.224731 
	C213.112244,305.846985 213.294678,300.184082 214.742493,289.432495 
	C215.739975,291.579285 216.290070,292.763214 216.899750,294.344849 
z"/>
<path fill="#F5F5F5" opacity="1.000000" stroke="none" 
	d="
M265.144867,397.180542 
	C263.279968,399.179413 260.997467,401.099304 258.361908,403.039246 
	C256.933167,401.462555 255.857452,399.865814 254.625488,398.037170 
	C256.842987,393.300537 258.130920,392.980194 262.431305,396.347961 
	C263.027588,396.815002 263.953796,396.860809 265.144867,397.180542 
z"/>
<path fill="#F5F5F5" opacity="1.000000" stroke="none" 
	d="
M212.846863,574.002991 
	C212.360184,568.324585 212.250198,562.606628 212.249298,556.427856 
	C213.213348,556.536560 214.792557,557.085449 214.809494,557.678894 
	C214.954361,562.753479 214.847382,567.837036 214.696732,572.914429 
	C214.685944,573.278320 213.736542,573.614441 212.846863,574.002991 
z"/>
<path fill="#F5F5F5" opacity="1.000000" stroke="none" 
	d="
M295.851837,53.960434 
	C296.882385,55.700657 297.510406,57.451130 298.139313,59.584461 
	C291.984650,60.853382 290.286102,59.386620 289.521057,52.094704 
	C291.613922,52.756989 293.531616,53.363838 295.851837,53.960434 
z"/>
<path fill="#E0E0E0" opacity="1.000000" stroke="none" 
	d="
M207.048767,306.430969 
	C207.561310,306.042572 207.911011,305.991760 208.524384,305.933228 
	C209.654205,311.284485 203.907303,320.638641 198.540924,322.015869 
	C201.077057,316.940613 203.981506,311.854553 207.048767,306.430969 
z"/>
<path fill="#F5F5F5" opacity="1.000000" stroke="none" 
	d="
M295.120575,363.127930 
	C295.299347,363.498718 295.296692,363.711121 295.277527,363.813690 
	C293.405975,365.091705 291.553589,366.267151 289.685486,367.452576 
	C287.282013,364.170715 290.487518,357.128113 294.941803,355.577087 
	C294.941803,357.899628 294.941803,360.328369 295.120575,363.127930 
z"/>
<path fill="#F7F7F7" opacity="1.000000" stroke="none" 
	d="
M301.001221,98.203499 
	C301.001221,102.561859 301.001221,106.456848 301.001221,110.351837 
	C300.490143,110.346046 299.979065,110.340256 299.467957,110.334465 
	C296.662354,104.551773 298.136566,98.627365 300.550720,92.557701 
	C300.700897,94.285179 300.851044,96.012657 301.001221,98.203499 
z"/>
<path fill="#E6E6E6" opacity="1.000000" stroke="none" 
	d="
M211.730026,140.032486 
	C211.232605,140.202759 210.543869,139.887527 210.544418,139.573502 
	C210.557785,131.972488 210.644699,124.371620 211.087311,116.588135 
	C211.640900,119.955856 211.825531,123.506149 212.008362,127.860123 
	C212.015747,129.115738 212.024948,129.567673 212.034164,130.019608 
	C211.976044,133.195587 211.917938,136.371552 211.730026,140.032486 
z"/>
<path fill="#F7F7F7" opacity="1.000000" stroke="none" 
	d="
M290.571411,63.353554 
	C290.335724,64.649590 289.924774,65.615463 289.513824,66.581329 
	C288.570038,66.071304 287.302032,65.790276 286.747589,65.005249 
	C285.454346,63.174225 284.504272,61.100834 283.411133,59.127472 
	C287.243317,56.819405 287.243317,56.819405 290.571411,63.353554 
z"/>
<path fill="#F5F5F5" opacity="1.000000" stroke="none" 
	d="
M212.280121,550.726685 
	C211.402786,547.652161 210.828690,544.294006 209.858795,540.862915 
	C209.428635,540.385071 209.394302,539.980347 209.596497,539.040955 
	C209.810806,537.373352 209.788544,536.240417 209.766296,535.107422 
	C210.574921,535.073425 211.383530,535.039551 212.596588,535.404175 
	C213.000290,536.866882 212.999527,537.931030 212.998779,538.995117 
	C212.860306,542.811157 212.721817,546.627136 212.280121,550.726685 
z"/>
<path fill="#F4F4F4" opacity="1.000000" stroke="none" 
	d="
M213.416321,538.993896 
	C212.999527,537.931030 213.000290,536.866882 213.001434,535.403809 
	C213.730972,533.137512 214.460098,531.270203 215.189240,529.402832 
	C215.793518,531.398987 216.580200,533.361755 216.953430,535.400208 
	C217.368866,537.669312 216.566620,539.267273 213.416321,538.993896 
z"/>
<path fill="#F7F7F7" opacity="1.000000" stroke="none" 
	d="
M275.222473,453.137756 
	C277.569366,455.127319 279.855072,457.530823 282.204651,460.255127 
	C279.005859,463.180542 276.966949,462.282776 276.059509,458.360168 
	C275.692352,456.773010 275.456787,455.155426 275.222473,453.137756 
z"/>
<path fill="#F7F7F7" opacity="1.000000" stroke="none" 
	d="
M244.007629,410.099548 
	C243.663864,411.245392 242.913452,412.309875 242.069092,413.687805 
	C240.867813,413.679230 239.588669,413.602722 238.694183,412.976685 
	C237.412323,412.079498 236.411285,410.781067 235.290344,409.653961 
	C237.047623,409.234039 238.796967,408.550354 240.565262,408.497070 
	C241.561005,408.467102 242.588043,409.476807 244.007629,410.099548 
z"/>
<path fill="#F7F7F7" opacity="1.000000" stroke="none" 
	d="
M288.931335,41.038906 
	C289.583801,41.663589 289.889252,42.426987 290.237549,43.509064 
	C288.243317,46.015221 286.206238,48.202698 284.206360,50.350193 
	C281.865936,46.393185 282.696533,44.559830 288.931335,41.038906 
z"/>
<path fill="#F4F4F4" opacity="1.000000" stroke="none" 
	d="
M188.038818,462.946808 
	C186.549622,461.550964 185.438141,460.150879 184.326691,458.750793 
	C185.054642,458.207428 186.041718,457.051666 186.464111,457.230408 
	C188.009216,457.884186 189.366257,458.982513 190.794113,459.913422 
	C190.001587,460.923126 189.209045,461.932831 188.038818,462.946808 
z"/>
<path fill="#949494" opacity="1.000000" stroke="none" 
	d="
M157.756104,439.159912 
	C158.256973,439.408325 158.757828,439.656769 159.675079,440.262817 
	C160.708954,441.121674 161.326401,441.622925 162.035873,442.344421 
	C162.342316,442.822083 162.615433,442.973846 162.947250,443.019958 
	C164.733154,445.328796 166.519058,447.637634 168.270782,450.302124 
	C164.571625,447.322815 160.906631,443.987885 157.185638,440.152771 
	C157.290344,439.427155 157.499161,439.262939 157.756104,439.159912 
z"/>
<path fill="#F7F7F7" opacity="1.000000" stroke="none" 
	d="
M251.937714,393.034973 
	C250.585739,394.210754 249.273682,395.092621 247.842194,395.686523 
	C247.661865,395.761292 246.259720,394.062866 246.447418,393.631927 
	C246.998428,392.366821 248.065567,391.326569 248.930603,390.198242 
	C249.934067,391.016357 250.937531,391.834473 251.937714,393.034973 
z"/>
<path fill="#F4F4F4" opacity="1.000000" stroke="none" 
	d="
M163.253967,442.892975 
	C162.615433,442.973846 162.342316,442.822083 162.162888,442.035339 
	C162.463837,440.672913 162.729782,439.839783 162.995728,439.006683 
	C163.314133,438.216278 163.632538,437.425842 163.976395,436.314880 
	C164.751083,435.995331 165.500351,435.996399 166.624832,436.370514 
	C167.334381,438.163635 167.668701,439.583710 168.003052,441.003784 
	C166.522247,441.591187 165.041458,442.178589 163.253967,442.892975 
z"/>
<path fill="#E0E0E0" opacity="1.000000" stroke="none" 
	d="
M4.681305,573.504517 
	C5.366567,573.073242 5.892422,573.043091 6.683245,572.998779 
	C7.145745,575.158264 7.343278,577.331726 7.252638,579.758118 
	C6.435885,579.943970 5.907306,579.876953 5.114051,579.848145 
	C4.740216,577.892761 4.631058,575.899170 4.681305,573.504517 
z"/>
<path fill="#E0E0E0" opacity="1.000000" stroke="none" 
	d="
M5.924578,71.092148 
	C5.449774,68.339531 5.337057,65.535080 5.405164,62.290802 
	C8.678160,63.987816 8.951202,67.568748 5.924578,71.092148 
z"/>
<path fill="#E0E0E0" opacity="1.000000" stroke="none" 
	d="
M5.940012,52.094131 
	C5.461372,49.341976 5.343265,46.536697 5.405094,43.291176 
	C8.675131,44.980938 8.952442,48.542725 5.940012,52.094131 
z"/>
<path fill="#F5F5F5" opacity="1.000000" stroke="none" 
	d="
M168.274582,440.779480 
	C167.668701,439.583710 167.334381,438.163635 166.999512,436.370117 
	C167.453705,434.832031 167.852951,433.636902 168.450333,432.550720 
	C168.509079,432.443878 170.330322,432.910553 170.393585,433.274414 
	C170.604355,434.486847 170.597397,435.830811 170.275833,437.016388 
	C169.938324,438.260834 169.141953,439.380798 168.274582,440.779480 
z"/>
<path fill="#EAEAEA" opacity="1.000000" stroke="none" 
	d="
M67.382156,317.053162 
	C67.744118,320.412323 67.760780,323.874359 67.870636,327.720337 
	C66.982079,327.393158 65.101891,326.578430 65.169937,325.988373 
	C65.513206,323.012085 66.364098,320.094360 67.382156,317.053162 
z"/>
<path fill="#F5F5F5" opacity="1.000000" stroke="none" 
	d="
M70.079041,330.041382 
	C71.814476,329.710175 73.480171,329.770905 75.561264,329.884949 
	C74.198746,331.807953 72.420815,333.677643 70.642891,335.547333 
	C70.126183,335.169281 69.609482,334.791260 69.092781,334.413208 
	C69.398293,333.086578 69.703804,331.759979 70.079041,330.041382 
z"/>
<path fill="#EBEBEB" opacity="1.000000" stroke="none" 
	d="
M91.220749,291.025635 
	C93.208015,291.115448 94.837059,291.224701 96.466110,291.333984 
	C96.096428,292.112823 95.616783,293.596893 95.374420,293.559113 
	C93.414978,293.253571 91.500130,292.662170 89.571671,292.157959 
	C90.001961,291.786987 90.432243,291.416046 91.220749,291.025635 
z"/>
<path fill="#A0A0A0" opacity="1.000000" stroke="none" 
	d="
M307.046509,503.150330 
	C308.505493,505.618195 309.731598,508.455322 310.921509,511.680969 
	C309.969696,511.067474 308.726532,510.207367 308.216217,509.029694 
	C307.472260,507.312775 307.255280,505.367523 307.046509,503.150330 
z"/>
<path fill="#E6E6E6" opacity="1.000000" stroke="none" 
	d="
M210.422974,295.918793 
	C210.152588,292.871307 210.264557,289.730988 210.634277,286.281738 
	C210.863144,289.257172 210.834244,292.541595 210.422974,295.918793 
z"/>
<path fill="#949494" opacity="1.000000" stroke="none" 
	d="
M188.944901,326.582520 
	C191.225632,325.276733 193.866943,324.196411 196.866425,323.287903 
	C194.584885,324.575775 191.945175,325.691864 188.944901,326.582520 
z"/>
<path fill="#E0E0E0" opacity="1.000000" stroke="none" 
	d="
M5.889451,22.095020 
	C5.416876,20.334713 5.294876,18.530350 5.334834,16.297173 
	C9.590159,17.466932 8.829219,19.649059 5.889451,22.095020 
z"/>
<path fill="#EBEBEB" opacity="1.000000" stroke="none" 
	d="
M318.831177,567.187073 
	C319.422546,569.026672 319.708099,571.116821 319.996033,573.603699 
	C316.447418,572.499634 318.246033,569.798096 318.831177,567.187073 
z"/>
<path fill="#EBEBEB" opacity="1.000000" stroke="none" 
	d="
M315.137604,584.516968 
	C314.466919,582.976929 314.133362,581.325806 313.799835,579.674683 
	C314.457062,579.636047 315.114288,579.597351 315.771515,579.558655 
	C315.672577,581.174377 315.573639,582.790161 315.137604,584.516968 
z"/>
<path fill="#EBEBEB" opacity="1.000000" stroke="none" 
	d="
M98.897385,286.418213 
	C98.154373,285.251892 97.476723,283.717773 96.799065,282.183624 
	C97.438705,281.980408 98.078346,281.777191 98.717987,281.573944 
	C98.799576,283.066101 98.881165,284.558258 98.897385,286.418213 
z"/>
<path fill="#EFEFEF" opacity="1.000000" stroke="none" 
	d="
M299.006500,84.118126 
	C299.178741,83.011467 299.348328,82.289551 299.517944,81.567627 
	C299.816498,81.585510 300.115082,81.603386 300.413635,81.621262 
	C300.413635,83.525284 300.413635,85.429314 300.413635,87.333344 
	C300.146088,87.373772 299.878540,87.414200 299.610992,87.454628 
	C299.408600,86.470703 299.206238,85.486786 299.006500,84.118126 
z"/>
<path fill="#949494" opacity="1.000000" stroke="none" 
	d="
M176.262177,459.345123 
	C174.517853,457.979279 172.823868,456.264374 171.165344,454.206146 
	C172.904694,455.573883 174.608597,457.284973 176.262177,459.345123 
z"/>
<path fill="#949494" opacity="1.000000" stroke="none" 
	d="
M100.863434,296.182251 
	C99.335503,297.165863 97.413025,297.987823 95.124252,298.655640 
	C94.540161,298.165558 94.581833,297.865875 95.269119,297.380524 
	C96.129936,296.870483 96.604607,296.582367 97.079277,296.294189 
	C98.209145,296.203003 99.339020,296.111786 100.863434,296.182251 
z"/>
<path fill="#F4F4F4" opacity="1.000000" stroke="none" 
	d="
M212.435135,130.012878 
	C212.024948,129.567673 212.015747,129.115738 212.014221,128.324707 
	C213.525436,127.732658 215.028976,127.479698 216.532516,127.226738 
	C216.685425,127.772217 216.838348,128.317688 216.991257,128.863159 
	C215.606201,129.244171 214.221161,129.625168 212.435135,130.012878 
z"/>
<path fill="#E0E0E0" opacity="1.000000" stroke="none" 
	d="
M5.888924,11.107280 
	C5.454552,9.998012 5.351565,8.851432 5.374361,7.284292 
	C8.939193,7.718099 9.012422,9.148741 5.888924,11.107280 
z"/>
<path fill="#B6B6B6" opacity="1.000000" stroke="none" 
	d="
M6.950103,310.597351 
	C6.398663,311.068787 5.851290,311.140900 5.028037,311.186707 
	C4.592092,309.979095 4.432028,308.797791 4.526271,307.229401 
	C5.321062,306.888885 5.861545,306.935455 6.673979,306.992706 
	C6.948676,308.068268 6.951423,309.133179 6.950103,310.597351 
z"/>
<path fill="#EAEAEA" opacity="1.000000" stroke="none" 
	d="
M69.855148,305.103638 
	C69.723717,306.906372 69.220306,308.728790 68.482147,310.806061 
	C68.659317,309.081726 69.071251,307.102509 69.855148,305.103638 
z"/>
<path fill="#F7F7F7" opacity="1.000000" stroke="none" 
	d="
M275.056152,464.399292 
	C275.953064,465.271423 276.520538,466.174164 277.088013,467.076904 
	C276.508240,467.302948 275.928436,467.528992 275.348633,467.755035 
	C275.141327,466.646667 274.934021,465.538300 275.056152,464.399292 
z"/>
<path fill="#949494" opacity="1.000000" stroke="none" 
	d="
M209.578491,535.037842 
	C209.788544,536.240417 209.810806,537.373352 209.582184,538.736450 
	C208.983810,537.786255 208.636307,536.605896 208.479736,535.075195 
	C208.967438,534.638428 209.207428,534.719543 209.578491,535.037842 
z"/>
<path fill="#F4F4F4" opacity="1.000000" stroke="none" 
	d="
M162.796204,434.733185 
	C162.315262,435.536194 161.627319,436.078003 160.939362,436.619812 
	C160.628998,435.970062 160.318649,435.320343 160.004761,434.333466 
	C160.863876,434.154877 161.726547,434.313446 162.796204,434.733185 
z"/>
<path fill="#949494" opacity="1.000000" stroke="none" 
	d="
M179.279694,463.307739 
	C178.200531,462.596008 177.165863,461.545746 176.212021,460.153839 
	C177.303314,460.864532 178.313751,461.916870 179.279694,463.307739 
z"/>
<path fill="#EAEAEA" opacity="1.000000" stroke="none" 
	d="
M72.875320,300.895844 
	C72.352135,301.894073 71.645439,302.606750 70.656219,303.437378 
	C71.146400,302.573669 71.919106,301.591949 72.875320,300.895844 
z"/>
<path fill="#C4C4C4" opacity="1.000000" stroke="none" 
	d="
M183.109222,329.119110 
	C183.015472,328.528687 183.045334,328.176270 183.078781,327.557251 
	C183.509186,327.238739 183.935974,327.186859 184.683990,327.440674 
	C185.010742,327.962036 185.016251,328.177673 185.021744,328.393341 
	C184.425446,328.714630 183.829147,329.035889 183.109222,329.119110 
z"/>
<path fill="#F4F4F4" opacity="1.000000" stroke="none" 
	d="
M190.923615,89.806496 
	C189.888657,89.784431 188.804916,89.360359 187.568817,88.599014 
	C188.569244,88.642647 189.722046,89.023567 190.923615,89.806496 
z"/>
<path fill="#F7F7F7" opacity="1.000000" stroke="none" 
	d="
M222.207581,419.797058 
	C222.570084,419.197235 222.995377,418.895691 223.420670,418.594147 
	C223.535233,419.039764 223.649811,419.485382 223.764389,419.931000 
	C223.266373,419.985779 222.768372,420.040527 222.207581,419.797058 
z"/>
<path fill="#F4F4F4" opacity="1.000000" stroke="none" 
	d="
M204.914948,97.863480 
	C203.957855,97.391800 203.035294,96.520210 201.992325,95.352913 
	C202.897766,95.859337 203.923615,96.661453 204.914948,97.863480 
z"/>
<path fill="#EAEAEA" opacity="1.000000" stroke="none" 
	d="
M103.097153,413.253967 
	C103.197556,414.103699 102.931999,414.881714 102.423279,415.852539 
	C102.363815,415.091003 102.547501,414.136627 103.097153,413.253967 
z"/>
<path fill="#949494" opacity="1.000000" stroke="none" 
	d="
M181.214081,466.438904 
	C180.493011,466.003326 179.819580,465.231995 179.243622,464.125671 
	C179.981293,464.561523 180.621506,465.332336 181.214081,466.438904 
z"/>
<path fill="#F5F5F5" opacity="1.000000" stroke="none" 
	d="
M292.632599,369.047302 
	C292.508453,369.899506 292.043304,370.808899 291.286621,371.853638 
	C291.427277,371.027527 291.859436,370.066010 292.632599,369.047302 
z"/>
<path fill="#949494" opacity="1.000000" stroke="none" 
	d="
M185.351730,328.268555 
	C185.016251,328.177673 185.010742,327.962036 185.006744,327.422791 
	C185.575500,326.836823 186.142761,326.574432 186.856033,326.520569 
	C186.561935,327.200623 186.121826,327.672180 185.351730,328.268555 
z"/>
<path fill="#F4F4F4" opacity="1.000000" stroke="none" 
	d="
M209.804626,105.168816 
	C209.113022,104.979378 208.464767,104.390915 207.745621,103.466751 
	C208.399139,103.677299 209.123550,104.223549 209.804626,105.168816 
z"/>
<path fill="#EBEBEB" opacity="1.000000" stroke="none" 
	d="
M103.137711,88.262413 
	C103.017807,88.993538 102.486870,89.656799 101.656731,90.445953 
	C101.813911,89.779419 102.270294,88.986984 103.137711,88.262413 
z"/>
<path fill="#F5F5F5" opacity="1.000000" stroke="none" 
	d="
M269.463745,381.610687 
	C269.348236,382.058105 269.066406,382.332367 268.766663,382.585358 
	C268.759003,382.591858 268.555023,382.365753 268.442596,382.248138 
	C268.726746,381.976990 269.010925,381.705841 269.463745,381.610687 
z"/>
<path fill="#EAEAEA" opacity="1.000000" stroke="none" 
	d="
M96.934074,296.011902 
	C96.604607,296.582367 96.129936,296.870483 95.365158,297.154205 
	C95.646317,296.676392 96.217590,296.203003 96.934074,296.011902 
z"/>
<path fill="#EAEAEA" opacity="1.000000" stroke="none" 
	d="
M78.177353,298.281403 
	C77.932373,298.932190 77.315285,299.491150 76.368591,300.065308 
	C76.627739,299.450195 77.216492,298.819885 78.177353,298.281403 
z"/>
<path fill="#A1A1A1" opacity="1.000000" stroke="none" 
	d="
M311.094421,514.291565 
	C311.346375,514.454346 311.267059,514.426086 311.295685,514.394897 
	C311.106567,514.467773 310.888794,514.571838 310.671021,514.675903 
	C310.728180,514.493530 310.785339,514.311157 311.094421,514.291565 
z"/>
<path fill="#A8A8A8" opacity="1.000000" stroke="none" 
	d="
M157.736023,438.834290 
	C157.499161,439.262939 157.290344,439.427155 157.059418,439.842468 
	C156.459579,439.781128 155.929977,439.529938 155.355179,438.820496 
	C155.499939,437.980164 155.689896,437.598053 155.879852,437.215942 
	C156.491882,437.646851 157.103912,438.077728 157.736023,438.834290 
z"/>
<path fill="#949494" opacity="1.000000" stroke="none" 
	d="
M155.788620,436.943512 
	C155.689896,437.598053 155.499939,437.980164 155.218781,438.557434 
	C154.516663,438.328613 153.905746,437.904602 153.203354,437.210693 
	C153.512039,436.747131 153.912201,436.553558 154.507233,436.265503 
	C155.033844,436.337738 155.365616,436.504395 155.788620,436.943512 
z"/>
<path fill="#7C7C7C" opacity="1.000000" stroke="none" 
	d="
M4.008889,348.339447 
	C4.546669,348.978088 5.017995,349.906647 5.016623,350.834442 
	C4.995675,364.993164 4.912967,379.151764 4.581905,393.623627 
	C3.948754,393.107391 3.250705,392.275513 3.256718,391.448792 
	C3.360518,377.175140 3.551028,362.902130 4.008889,348.339447 
z"/>
<path fill="#7C7C7C" opacity="1.000000" stroke="none" 
	d="
M4.054028,328.229309 
	C4.726882,331.363342 5.024862,334.686493 5.376078,338.451538 
	C5.207834,339.177704 4.986355,339.462036 4.520215,339.859161 
	C4.076754,336.120789 3.877954,332.269653 4.054028,328.229309 
z"/>
<path fill="#FDFDFD" opacity="1.000000" stroke="none" 
	d="
M269.925354,390.354767 
	C270.015106,391.095184 269.801758,391.818970 269.588409,392.542786 
	C269.199371,392.401672 268.810303,392.260529 268.421265,392.119415 
	C268.821594,391.525665 269.221893,390.931915 269.925354,390.354767 
z"/>
<path fill="#FDFDFD" opacity="1.000000" stroke="none" 
	d="
M216.044281,580.394714 
	C216.285812,580.790710 216.284149,581.184326 216.254120,581.575806 
	C216.253281,581.586670 215.948135,581.574280 215.784882,581.572754 
	C215.788971,581.179199 215.793076,580.785645 216.044281,580.394714 
z"/>
<path fill="#FDFDFD" opacity="1.000000" stroke="none" 
	d="
M162.736633,438.909058 
	C162.729782,439.839783 162.463837,440.672913 162.070877,441.815063 
	C161.326401,441.622925 160.708954,441.121674 159.943192,440.357666 
	C160.689102,439.667053 161.583313,439.239227 162.736633,438.909058 
z"/>
</svg>